<svg xmlns="http://www.w3.org/2000/svg" viewBox="0 0 300 300" width="300" height="300" role="img" aria-label="Nexus Products Limited">
<rect x="8" y="8" width="284" height="284" rx="26" fill="none" stroke="#1A2438" stroke-width="14"/>
<path transform="translate(46.0125,203)" fill="#1A2438" fill-rule="nonzero" d="M37.013537085056306 -2.0231708496809007Q37.013537085056306 -1.1313845459371805 36.350246203690766 -0.5768920532427728Q35.686955322325225 -0.022399560548365116 34.31077470704913 0.0H7.550738696381449Q6.174558081105351 -0.022399560548365116 5.500067419465632 -0.5768920532427728Q4.825576757825911 -1.1313845459371805 4.825576757825911 -2.0231708496809007Q4.825576757825911 -3.514548010379076 6.940752734430134 -4.3047380860894915L11.13437648937106 -5.504344018734991Q14.45917030032724 -6.6373398073017595 16.09957355344668 -8.465539740119128Q17.73997680656612 -10.293739672936498 17.73997680656612 -14.006735705584287V-84.95767331533133Q17.73997680656612 -86.72826160881668 17.37438045646995 -87.78695351555943Q17.008784106373785 -88.84564542230218 15.43799450676888 -90.82563352044671L8.804388818331063 -100.30525776352734Q8.041997863724827 -101.41564658191055 7.6648000060580666 -102.07754104603082Q7.287602148391306 -102.73943551015108 7.287602148391306 -103.3116280272603Q7.287602148391306 -104.14641494136303 7.89069328000769 -104.57320747068152Q8.493784411624073 -105.0 9.54237087406218 -105.0H28.279153393395244Q29.67793719470501 -105.0 30.61012650746852 -104.41000335691496Q31.542315820232034 -103.82000671382993 32.63430727533996 -102.25801745597273L89.68312397450208 -18.953887817636133L87.3267482176423 -13.489557714946567V-90.99326429441571Q87.3267482176423 -94.67686155997217 85.72904346305876 -96.53136171251535Q84.13133870847523 -98.38586186505854 80.65954648442566 -99.495655981265L75.31789538562298 -100.6952619139105Q73.20271940901875 -101.55265067126602 73.20271940901875 -102.97682915031909Q73.20271940901875 -103.92401519771666 73.87721007065846 -104.46200759885832Q74.55170073229819 -105.0 75.90548178702592 -105.0H102.66551779769361Q104.04169841296971 -105.0 104.71618907460942 -104.46200759885832Q105.39067973624914 -103.92401519771666 105.39067973624914 -102.97682915031909Q105.39067973624914 -101.50785155016929 103.27550375964492 -100.6952619139105L99.08188000470399 -99.495655981265Q95.77248654775322 -98.45306054670364 94.12438311763108 -96.59856039416044Q92.47627968750894 -94.74406024161726 92.47627968750894 -90.99326429441571V-17.951519140787422Q92.47627968750894 -16.2595336060971 92.84217824097723 -15.033743670769034Q93.20807679444552 -13.80795373544097 93.94266997072846 -12.7391620606184L98.8802744384855 -5.590347070433199Q99.95486700441688 -4.07035518810153 100.2607664734125 -3.2997595704160627Q100.56666594240814 -2.529163952730596 100.56666594240814 -1.8867711670696734Q100.56666594240814 -1.0477843506261706 99.94397455444559 -0.5238921753130853Q99.32128316648304 0.0 98.07469694819301 0.0H78.45714814458042Q76.07077165525406 0.0 76.07077165525406 -2.0023819824680684Q76.07077165525406 -2.8465749878436326 75.7416744201444 -3.693869775440544Q75.41257718503475 -4.541164563037455 74.09079326167702 -6.316343042068183L17.855155834928155 -88.23649257794023L22.889508276432753 -90.84604748524725V-13.964735888689756Q22.889508276432753 -10.360938354581593 24.502612713631244 -8.517338067758828Q26.11571715082973 -6.6737377809360625 29.49510859362781 -5.504344018734991L34.89836110845208 -4.3047380860894915Q37.013537085056306 -3.4921484498307107 37.013537085056306 -2.0231708496809007Z M204.56786657720804 -66.29879790041595Q204.56786657720804 -56.3839946899563 199.74607075201345 -49.09299154663458Q194.9242749268189 -41.80198840331286 186.2292854248546 -37.80058664549142Q177.5342959228903 -33.79918488766998 165.94591369628907 -33.79918488766998Q157.807122021541 -33.79918488766998 151.32112766727806 -35.57278447262942Q144.8351333130151 -37.34638405758887 139.76473356932402 -40.771588659659024L140.45192736815662 -44.74393396005034Q143.51153293456883 -42.64952988289296 146.72733654174954 -41.32772871712223Q149.94314014893024 -40.00592755135148 153.31264011841267 -39.39392794808373Q156.6821400878951 -38.78192834481597 160.1213344970718 -38.78192834481597Q166.97234084475787 -38.78192834481597 172.3253442627378 -42.06983837289735Q177.6783476807177 -45.35774840097874 180.7747493164614 -51.63636373300105Q183.87115095220506 -57.91497906502336 183.87115095220506 -66.78399566654116Q183.87115095220506 -77.29861844480037 180.10714594731107 -84.83713254388421Q176.34314094241708 -92.37564664296805 169.65403278199955 -96.42445317981765Q162.96492462158204 -100.47325971666723 154.14551633298396 -100.47325971666723H147.6446892578155V-8.495918640308082Q147.6446892578155 -7.203926452808082 148.43348670043054 -6.370032538007944Q149.22228414304556 -5.536138623207807 150.87447769772263 -5.237739611975848L157.58988891597838 -4.27553836684674Q158.7520747192204 -4.06614100355655 159.26196875609457 -3.5392488587647675Q159.77186279296876 -3.0123567139729857 159.77186279296876 -2.0231708496809007Q159.77186279296876 -1.115984191931784 159.13257178952918 -0.557992095965892Q158.4932807860896 0.0 157.09749991446733 0.0H118.6073456665501Q117.22916462402792 0.0 116.56357340086252 -0.557992095965892Q115.89798217769713 -1.115984191931784 115.89798217769713 -2.042771106027067Q115.89798217769713 -3.6801474122330546 117.93996008299291 -4.272739062644541L123.37478856202215 -5.257339868322014Q124.97798309326171 -5.643336694501341 125.76957984007895 -6.433431701827795Q126.56117658689618 -7.223526709154248 126.56117658689618 -8.45251822527498V-96.41027998030185Q126.56117658689618 -97.71767252180724 125.77728001708165 -98.54486809065565Q124.99338344726712 -99.37206365950405 123.44058988038451 -99.74266013167798L117.86575895994902 -100.74686119370162Q115.89798217769713 -101.30445223376155 115.89798217769713 -102.95722889397292Q115.89798217769713 -103.94361545406282 116.55377327268944 -104.4718077270314Q117.20956436768175 -105.0 118.58774541020394 -105.0H154.45911018066107Q169.90228792726992 -105.0 181.13357893070207 -100.08740114746615Q192.3648699341342 -95.1748022949323 198.4663682556711 -86.44460208741947Q204.56786657720804 -77.71440187990665 204.56786657720804 -66.29879790041595Z"/>
</svg>